<?xml version="1.0" encoding="UTF-8" standalone="no"?>
<!DOCTYPE svg PUBLIC "-//W3C//DTD SVG 1.1//EN" "http://www.w3.org/Graphics/SVG/1.1/DTD/svg11.dtd">
<svg width="100%" height="100%" viewBox="0 0 877 890" version="1.1" xmlns="http://www.w3.org/2000/svg" xmlns:xlink="http://www.w3.org/1999/xlink" xml:space="preserve" xmlns:serif="http://www.serif.com/" style="fill-rule:evenodd;clip-rule:evenodd;stroke-linejoin:round;stroke-miterlimit:2;">
    <g transform="matrix(1,0,0,1,-58,-66)">
        <g id="Layer2">
            <g transform="matrix(1.110127,0,0,1.110127,-92.977215,-93.417722)">
                <path d="M335.076,877.994C216.179,809.882 136,681.731 136,535C136,388.269 216.179,260.118 335.076,192.006L335.076,255.302L335.392,256.753C246.493,318.509 188.246,421.357 188.246,537.702C188.246,653.91 246.355,756.652 335.076,818.432L335.076,877.994ZM589.942,874.325C750.125,845.995 871.952,705.963 871.952,537.702C871.952,428.046 820.21,330.379 739.829,267.806L758.2,211.927C859.667,283.449 926,401.539 926,535C926,733.255 779.625,897.592 589.143,925.743L590.002,875.051L589.942,874.325Z" style="fill:rgb(235,235,235);fill-opacity:0.74;"/>
                <clipPath id="_clip1">
                    <path d="M335.076,877.994C216.179,809.882 136,681.731 136,535C136,388.269 216.179,260.118 335.076,192.006L335.076,255.302L335.392,256.753C246.493,318.509 188.246,421.357 188.246,537.702C188.246,653.91 246.355,756.652 335.076,818.432L335.076,877.994ZM589.942,874.325C750.125,845.995 871.952,705.963 871.952,537.702C871.952,428.046 820.21,330.379 739.829,267.806L758.2,211.927C859.667,283.449 926,401.539 926,535C926,733.255 779.625,897.592 589.143,925.743L590.002,875.051L589.942,874.325Z"/>
                </clipPath>
                <g clip-path="url(#_clip1)">
                    <g transform="matrix(0.900798,0,0,0.900798,83.753706,84.150513)">
                        <path d="M561.933,877.194C739.756,845.744 875,690.291 875,503.5C875,381.767 817.559,273.345 728.327,203.881L748.721,141.848C861.362,221.246 935,352.341 935,500.5C935,720.588 772.505,903.023 561.046,934.274L562,878L561.933,877.194Z" style="fill:url(#_Linear2);"/>
                    </g>
                    <g transform="matrix(0.900798,0,0,0.900798,83.753706,84.150513)">
                        <path d="M279,191.854C180.508,260.438 116,374.495 116,503.5C116,632.505 180.508,746.562 279,815.146L279,881.267C147.009,805.654 58,663.389 58,500.5C58,337.611 147.009,195.346 279,119.733L279,191.854Z" style="fill:url(#_Linear3);"/>
                    </g>
                </g>
            </g>
            <g id="Layer1">
                <path d="M320,66L731,66C694.762,152.576 675,252 675,252L521,254L521,398L689,397C673.826,476.435 674,580 674,580L521,581L521,907C440.444,912.188 320,956 320,956L320,66Z" style="fill:white;"/>
            </g>
        </g>
    </g>
    <defs>
        <linearGradient id="_Linear2" x1="0" y1="0" x2="1" y2="0" gradientUnits="userSpaceOnUse" gradientTransform="matrix(0,831,-831,0,506,104)"><stop offset="0" style="stop-color:rgb(255,0,0);stop-opacity:1"/><stop offset="1" style="stop-color:rgb(153,0,0);stop-opacity:1"/></linearGradient>
        <linearGradient id="_Linear3" x1="0" y1="0" x2="1" y2="0" gradientUnits="userSpaceOnUse" gradientTransform="matrix(0,831,-831,0,506,104)"><stop offset="0" style="stop-color:rgb(255,0,0);stop-opacity:1"/><stop offset="1" style="stop-color:rgb(153,0,0);stop-opacity:1"/></linearGradient>
    </defs>
</svg>
